<?xml version="1.0" standalone="no"?>
<!DOCTYPE svg PUBLIC "-//W3C//DTD SVG 20010904//EN"
 "http://www.w3.org/TR/2001/REC-SVG-20010904/DTD/svg10.dtd">
<svg version="1.0" xmlns="http://www.w3.org/2000/svg"
 width="128.000000pt" height="128.000000pt" viewBox="0 0 128.000000 128.000000"
 preserveAspectRatio="xMidYMid meet">
<metadata>
Created by potrace 1.11, written by Peter Selinger 2001-2013
</metadata>
<g transform="translate(0.000000,128.000000) scale(0.100000,-0.100000)"
fill="#000000" stroke="none">
<path d="M0 640 l0 -640 640 0 640 0 0 640 0 640 -640 0 -640 0 0 -640z m488
255 c59 -25 112 -86 112 -130 0 -26 -59 -20 -69 8 -19 49 -83 87 -146 87 -135
0 -217 -148 -170 -307 28 -93 81 -135 172 -137 38 0 60 5 80 20 38 28 73 82
73 110 0 21 5 24 36 24 35 0 35 -1 29 -32 -27 -122 -117 -187 -246 -175 -139
12 -209 93 -217 248 -7 139 36 231 130 278 53 26 160 29 216 6z m326 -120 c44
-69 81 -125 82 -125 2 0 38 56 80 125 77 125 77 125 115 125 l38 0 -99 -153
-100 -153 0 -112 0 -112 -35 0 -35 0 0 110 0 109 -93 143 c-51 79 -96 149
-101 156 -5 9 3 12 31 12 38 0 39 -1 117 -125z"/>
</g>
</svg>
