<svg id="732157cb-36bf-4a58-99f8-144c8024ac15" data-name="Layer 1" xmlns="http://www.w3.org/2000/svg" width="150.78" height="24" viewBox="0 0 150.78 24"><title>studio-juice-logo</title><path d="M0,16.56l5.8-.79c.08,2.22.78,3.1,1.38,3.1s.71-.45.71-.84C7.89,14.56.15,12.67.15,6.85c0-4,2.8-6.85,7.1-6.85S14.18,3,14,7.33l-5.72.55C8.29,6.13,8,5.1,7.21,5.1A.85.85,0,0,0,6.43,6c0,3,7.68,5.14,7.68,11.36A6.53,6.53,0,0,1,7.22,24C1.75,24,0,20.21,0,16.56Z" style="fill:#fff"/><path d="M17.58,23.65V5.57H14.8V.3H26.6V5.57H23.82V23.65Z" style="fill:#fff"/><path d="M35.71.3V17.86a.81.81,0,1,1-1.61,0V.3H27.88V16.59c0,4.48,2.4,7.41,7,7.41s7-2.93,7-7.41V.3Z" style="fill:#fff"/><path d="M109.27.3V17.86a.81.81,0,1,1-1.61,0V.3h-6.22V16.59c0,4.48,2.4,7.41,7,7.41s7-2.93,7-7.41V.3Z" style="fill:#fff"/><path d="M43.61.3h6.46c5.12,0,7.76,4,7.76,11.73s-2.65,11.62-7.76,11.62H43.61Zm6.22,18.09h.39c.67,0,1.37-1.49,1.37-6.35s-.7-6.47-1.37-6.47h-.39Z" style="fill:#fff"/><path d="M65.43.3V23.65H59.31V.3Z" style="fill:#fff"/><path d="M123.3.3V23.65h-6.12V.3Z" style="fill:#fff"/><path d="M81.49,12c0,8.26-2.64,12-7.3,12s-7.3-3.74-7.3-12S69.55,0,74.2,0,81.49,3.78,81.49,12Zm-8.31,0c0,5.58.49,6.73,1,6.73s1-1.16,1-6.73-.47-6.73-1-6.73S73.18,6.42,73.18,12Z" style="fill:#fff"/><path d="M150.74,23.65H140.36V.3h10.42V5.57H146.5V9.28h3.6v5.15h-3.6v4h4.24Z" style="fill:#fff"/><path d="M132.89,14.31c.11,2.76-.29,4.42-.79,4.42S131,16.62,131,12s.59-6.73,1.14-6.73.9,1.56.79,4.32h6c.29-5.81-2-9.59-6.73-9.59-4.42,0-7.36,3.43-7.36,12s2.94,12,7.36,12c4.69,0,7-3.87,6.73-9.69Z" style="fill:#fff"/><path d="M93.59.3V15c0,2.78-.09,3.71-.56,3.71s-1-1-1-3.25l-5.88.9C86.12,20.15,87.81,24,93,24c4.25,0,6.79-2.32,6.79-7V.3Z" style="fill:#fff"/></svg>